HIERARCHY
ROOT hip
{
  OFFSET 0 0 0
  CHANNELS 6 Xposition Yposition Zposition Zrotation Yrotation Xrotation
  JOINT abdomen
  {
    OFFSET 0 20.6881 -0.73152
    CHANNELS 3 Zrotation Xrotation Yrotation
    JOINT chest
    {
      OFFSET 0 11.7043 -0.48768
      CHANNELS 3 Zrotation Xrotation Yrotation
      JOINT neck
      {
        OFFSET 0 22.1894 -2.19456
        CHANNELS 3 Zrotation Xrotation Yrotation
        JOINT head
        {
          OFFSET -0.24384 7.07133 1.2192
          CHANNELS 3 Zrotation Xrotation Yrotation
          JOINT leftEye
          {
            OFFSET 4.14528 8.04674 8.04672
            CHANNELS 3 Zrotation Xrotation Yrotation
            End Site
            {
              OFFSET 1 0 0
            }
          }
          JOINT rightEye
          {
            OFFSET -3.6576 8.04674 8.04672
            CHANNELS 3 Zrotation Xrotation Yrotation
            End Site
            {
              OFFSET 1 0 0
            }
          }
        }
      }
      JOINT rCollar
      {
        OFFSET -2.68224 19.2634 -4.8768
        CHANNELS 3 Zrotation Xrotation Yrotation
        JOINT rShldr
        {
          OFFSET -8.77824 -1.95073 1.46304
          CHANNELS 3 Zrotation Xrotation Yrotation
          JOINT rForeArm
          {
            OFFSET -28.1742 -1.7115 0.48768
            CHANNELS 3 Zrotation Xrotation Yrotation
            JOINT rHand
            {
              OFFSET -22.5879 0.773209 7.07136
              CHANNELS 3 Zrotation Xrotation Yrotation
              JOINT rThumb1
              {
                OFFSET -1.2192 -0.487915 3.41376
                CHANNELS 3 Zrotation Xrotation Yrotation
                JOINT rThumb2
                {
                  OFFSET -3.37035 -0.52449 3.41376
                  CHANNELS 3 Zrotation Xrotation Yrotation
                  End Site
                  {
                    OFFSET -1.78271 -1.18214 1.43049
                  }
                }
              }
              JOINT rIndex1
              {
                OFFSET -7.75947 0.938293 5.60832
                CHANNELS 3 Zrotation Xrotation Yrotation
                JOINT rIndex2
                {
                  OFFSET -2.54057 -0.884171 1.56538
                  CHANNELS 3 Zrotation Xrotation Yrotation
                  End Site
                  {
                    OFFSET -1.62519 -0.234802 1.16502
                  }
                }
              }
              JOINT rMid1
              {
                OFFSET -8.24714 1.18213 3.41376
                CHANNELS 3 Zrotation Xrotation Yrotation
                JOINT rMid2
                {
                  OFFSET -3.10165 -0.590103 1.0647
                  CHANNELS 3 Zrotation Xrotation Yrotation
                  End Site
                  {
                    OFFSET -2.48547 -0.328903 0.83742
                  }
                }
              }
              JOINT rRing1
              {
                OFFSET -8.82822 0.546677 1.51678
                CHANNELS 3 Zrotation Xrotation Yrotation
                JOINT rRing2
                {
                  OFFSET -2.60934 -0.819778 -0.0198488
                  CHANNELS 3 Zrotation Xrotation Yrotation
                  End Site
                  {
                    OFFSET -2.33842 -0.294052 0.168128
                  }
                }
              }
              JOINT rPinky1
              {
                OFFSET -8.27202 -0.0477905 -0.4584
                CHANNELS 3 Zrotation Xrotation Yrotation
                JOINT rPinky2
                {
                  OFFSET -1.82734 -0.647385 -0.700984
                  CHANNELS 3 Zrotation Xrotation Yrotation
                  End Site
                  {
                    OFFSET -1.69225 -0.51767 -0.607171
                  }
                }
              }
            }
          }
        }
      }
      JOINT lCollar
      {
        OFFSET 2.68224 19.2634 -4.8768
        CHANNELS 3 Zrotation Xrotation Yrotation
        JOINT lShldr
        {
          OFFSET 8.77824 -1.95073 1.46304
          CHANNELS 3 Zrotation Xrotation Yrotation
          JOINT lForeArm
          {
            OFFSET 28.1742 -1.7115 0.48768
            CHANNELS 3 Zrotation Xrotation Yrotation
            JOINT lHand
            {
              OFFSET 22.5879 0.773209 7.07136
              CHANNELS 3 Zrotation Xrotation Yrotation
              JOINT lThumb1
              {
                OFFSET 1.2192 -0.487915 3.41376
                CHANNELS 3 Zrotation Xrotation Yrotation
                JOINT lThumb2
                {
                  OFFSET 3.37035 -0.52449 3.41376
                  CHANNELS 3 Zrotation Xrotation Yrotation
                  End Site
                  {
                    OFFSET 1.78271 -1.18214 1.43049
                  }
                }
              }
              JOINT lIndex1
              {
                OFFSET 7.75947 0.938293 5.60832
                CHANNELS 3 Zrotation Xrotation Yrotation
                JOINT lIndex2
                {
                  OFFSET 2.54057 -0.884171 1.56538
                  CHANNELS 3 Zrotation Xrotation Yrotation
                  End Site
                  {
                    OFFSET 1.62519 -0.234802 1.16502
                  }
                }
              }
              JOINT lMid1
              {
                OFFSET 8.24714 1.18213 3.41376
                CHANNELS 3 Zrotation Xrotation Yrotation
                JOINT lMid2
                {
                  OFFSET 3.10165 -0.590103 1.0647
                  CHANNELS 3 Zrotation Xrotation Yrotation
                  End Site
                  {
                    OFFSET 2.48547 -0.328903 0.83742
                  }
                }
              }
              JOINT lRing1
              {
                OFFSET 8.82822 0.546677 1.51678
                CHANNELS 3 Zrotation Xrotation Yrotation
                JOINT lRing2
                {
                  OFFSET 2.60934 -0.819778 -0.0198488
                  CHANNELS 3 Zrotation Xrotation Yrotation
                  End Site
                  {
                    OFFSET 2.33842 -0.294052 0.168128
                  }
                }
              }
              JOINT lPinky1
              {
                OFFSET 8.27202 -0.0477905 -0.4584
                CHANNELS 3 Zrotation Xrotation Yrotation
                JOINT lPinky2
                {
                  OFFSET 1.82734 -0.647385 -0.700984
                  CHANNELS 3 Zrotation Xrotation Yrotation
                  End Site
                  {
                    OFFSET 1.69225 -0.51767 -0.607171
                  }
                }
              }
            }
          }
        }
      }
    }
  }
  JOINT rButtock
  {
    OFFSET -8.77824 4.35084 1.2192
    CHANNELS 3 Zrotation Xrotation Yrotation
    JOINT rThigh
    {
      OFFSET 0 -1.70687 -2.19456
      CHANNELS 3 Zrotation Xrotation Yrotation
      JOINT rShin
      {
        OFFSET 0 -36.8199 0.73152
        CHANNELS 3 Zrotation Xrotation Yrotation
        JOINT rFoot
        {
          OFFSET 0.73152 -45.1104 -5.12064
          CHANNELS 3 Zrotation Xrotation Yrotation
          End Site
          {
            OFFSET -1.1221 -3.69964 12.103
          }
        }
      }
    }
  }
  JOINT lButtock
  {
    OFFSET 8.77824 4.35084 1.2192
    CHANNELS 3 Zrotation Xrotation Yrotation
    JOINT lThigh
    {
      OFFSET 0 -1.70687 -2.19456
      CHANNELS 3 Zrotation Xrotation Yrotation
      JOINT lShin
      {
        OFFSET 0 -36.8199 0.73152
        CHANNELS 3 Zrotation Xrotation Yrotation
        JOINT lFoot
        {
          OFFSET -0.73152 -45.1104 -5.12064
          CHANNELS 3 Zrotation Xrotation Yrotation
          End Site
          {
            OFFSET 1.1221 -3.69964 12.103
          }
        }
      }
    }
  }
}
MOTION
Frames:	6
Frame Time:	0.00833333
-70.868 85.4536 -38.6309 -623.507 -97.1084 619.189 6.84001 3.04627 1.7931 -4.58762 2.07349 0.469489 1.05443 7.9586 -1.50618 4.3466 -25.0562 -2.2606 -0.0 0.0 0.0 -0.0 0.0 0.0 7.71184e-14 1.48739e-12 1.47163e-14 76.9038 28.7113 7.47926 -13.3769 -6.46241 24.3085 -0.0082773 2.59567 0.365051 -1.08591e-09 -1.54561e-10 -1.30393e-09 -1.88187e-09 -2.70198e-10 -2.24973e-09 -1.0859e-09 -1.54563e-10 -1.30393e-09 7.73091 5.47488 0.417314 -1.08591e-09 -1.54565e-10 -1.30393e-09 2.90554 0.965183 0.102902 -1.08591e-09 -1.54564e-10 -1.30393e-09 10.2786 0.731801 0.0259123 -1.08591e-09 -1.54561e-10 -1.30392e-09 2.22167 -0.733487 -0.20892 7.70442e-14 1.48739e-12 1.44026e-14 -82.9621 16.2016 6.96015 11.8322 -5.33144 -21.2861 0.153547 -11.097 1.5796 -1.50237e-09 -4.45647e-10 1.15361e-09 -2.60245e-09 -7.78145e-10 1.98308e-09 -1.50238e-09 -4.45646e-10 1.15362e-09 -7.73091 5.47488 -0.417314 -1.50237e-09 -4.45649e-10 1.15361e-09 -2.90554 0.965183 -0.102902 -1.50238e-09 -4.45646e-10 1.15361e-09 -10.2786 0.731801 -0.0259123 -1.50237e-09 -4.45645e-10 1.1536e-09 -2.22167 -0.733487 0.20892 -2.03217e-16 0.0 -3.88251e-19 12.625 -1.09859 1.62783 -0.172965 26.8287 0.473878 -5.45957 -18.7578 -12.1832 2.03217e-16 0.0 3.88251e-19 6.65663 -29.6738 1.27878 0.520121 46.8589 -0.598333 4.29571 -11.6945 14.3483
-71.6996 85.4932 -38.6486 -624.443 -97.1819 620.258 6.91669 2.9757 1.89873 -4.72127 2.18169 0.502035 1.04705 7.93559 -1.494 4.30559 -25.0124 -2.2453 -0.0 0.0 0.0 -0.0 0.0 0.0 1.13294e-13 1.94798e-12 8.84126e-15 76.5559 29.0494 8.02506 -13.5317 -6.58266 24.6165 -0.00660605 2.32155 0.326452 -1.59476e-09 -9.41175e-11 -1.15282e-09 -2.75985e-09 -1.65224e-10 -1.98763e-09 -1.59475e-09 -9.41236e-11 -1.15281e-09 7.73091 5.47488 0.417314 -1.59476e-09 -9.41256e-11 -1.15282e-09 2.90554 0.965183 0.102902 -1.59475e-09 -9.41248e-11 -1.15281e-09 10.2786 0.731801 0.0259123 -1.59477e-09 -9.4121e-11 -1.15281e-09 2.22167 -0.733487 -0.20892 1.13266e-13 1.94798e-12 8.60093e-15 -82.9676 16.1507 7.1427 11.9206 -5.39321 -21.4563 0.157379 -11.2353 1.59978 -2.00252e-09 -6.25177e-10 4.26149e-10 -3.46139e-09 -1.09098e-09 7.21693e-10 -2.00252e-09 -6.25175e-10 4.26166e-10 -7.73091 5.47488 -0.417314 -2.00252e-09 -6.25177e-10 4.26148e-10 -2.90554 0.965183 -0.102902 -2.00252e-09 -6.25177e-10 4.26147e-10 -10.2786 0.731801 -0.0259123 -2.00251e-09 -6.25176e-10 4.26138e-10 -2.22167 -0.733487 0.20892 -2.03217e-16 0.0 -3.88251e-19 12.5678 -0.138988 1.36548 -0.169953 25.8778 0.438272 -5.33662 -18.7534 -11.9087 2.03217e-16 0.0 3.88251e-19 6.56112 -30.0369 1.40957 0.463718 44.7326 -0.486746 4.39727 -11.846 14.8033
-72.5316 85.532 -38.669 -625.475 -97.2758 621.438 7.05446 2.87783 2.01776 -4.86623 2.29671 0.539752 1.04273 7.91298 -1.48383 4.26536 -24.9766 -2.23409 -0.0 0.0 0.0 -0.0 0.0 0.0 1.24044e-13 2.0536e-12 5.26779e-15 76.2268 29.375 8.54513 -13.685 -6.703 24.9224 -0.00517213 2.05301 0.288657 -1.82844e-09 -6.48929e-11 -9.67083e-10 -3.16266e-09 -1.14303e-10 -1.66629e-09 -1.82843e-09 -6.49012e-11 -9.67076e-10 7.73091 5.47488 0.417314 -1.82844e-09 -6.49028e-11 -9.67086e-10 2.90554 0.965183 0.102902 -1.82843e-09 -6.49022e-11 -9.6708e-10 10.2786 0.731801 0.0259123 -1.82845e-09 -6.48984e-11 -9.67076e-10 2.22167 -0.733487 -0.20892 1.24048e-13 2.05359e-12 5.06901e-15 -82.9604 16.0846 7.29663 11.98 -5.43465 -21.5712 0.1602 -11.3343 1.61426 -2.18558e-09 -6.67842e-10 -4.40793e-11 -3.77463e-09 -1.16555e-09 -9.25931e-11 -2.18558e-09 -6.67839e-10 -4.4057e-11 -7.73091 5.47488 -0.417314 -2.18558e-09 -6.67841e-10 -4.40761e-11 -2.90554 0.965183 -0.102902 -2.18558e-09 -6.67842e-10 -4.40809e-11 -10.2786 0.731801 -0.0259123 -2.18557e-09 -6.67841e-10 -4.40889e-11 -2.22167 -0.733487 0.20892 -2.03217e-16 0.0 -3.88251e-19 12.5525 0.827096 1.10384 -0.16707 24.8741 0.400254 -5.19344 -18.6971 -11.6067 2.03217e-16 0.0 3.88251e-19 6.5547 -30.4052 1.60694 0.412845 42.6399 -0.382358 4.45498 -11.9833 15.1042
-73.3637 85.5658 -38.6873 -626.656 -97.4097 622.785 7.27295 2.74214 2.15422 -5.03005 2.42455 0.58405 1.04271 7.89217 -1.47685 4.22346 -24.9497 -2.22992 -0.0 0.0 0.0 -0.0 0.0 0.0 8.89335e-14 1.5064e-12 4.3919e-15 75.9207 29.6833 9.03556 -13.8387 -6.82504 25.2299 -0.00392039 1.7872 0.251258 -1.59999e-09 -8.48533e-11 -6.56957e-10 -2.76727e-09 -1.48504e-10 -1.13093e-09 -1.59998e-09 -8.48602e-11 -6.56954e-10 7.73091 5.47488 0.417314 -1.59998e-09 -8.48617e-11 -6.5696e-10 2.90554 0.965183 0.102902 -1.59998e-09 -8.48611e-11 -6.56954e-10 10.2786 0.731801 0.0259123 -1.6e-09 -8.48576e-11 -6.56951e-10 2.22167 -0.733487 -0.20892 8.89473e-14 1.50639e-12 4.1869e-15 -82.941 16.0048 7.42248 12.012 -5.45663 -21.6337 0.162164 -11.4002 1.6239 -1.81254e-09 -4.87442e-10 -1.87556e-10 -3.13004e-09 -8.5167e-10 -3.3784e-10 -1.81254e-09 -4.87439e-10 -1.87535e-10 -7.73091 5.47488 -0.417314 -1.81254e-09 -4.87441e-10 -1.87553e-10 -2.90554 0.965183 -0.102902 -1.81254e-09 -4.87441e-10 -1.87558e-10 -10.2786 0.731801 -0.0259123 -1.81253e-09 -4.8744e-10 -1.87566e-10 -2.22167 -0.733487 0.20892 -2.03217e-16 0.0 -3.88251e-19 12.5855 1.80322 0.830875 -0.165068 23.7987 0.359841 -5.02358 -18.5853 -11.2615 2.03217e-16 0.0 3.88251e-19 6.65275 -30.7743 1.86909 0.364695 40.5547 -0.28084 4.46676 -12.0988 15.2652
-74.1942 85.5948 -38.7169 -627.982 -97.5973 624.3 7.55204 2.57538 2.30123 -5.20801 2.56508 0.63283 1.04531 7.874 -1.4722 4.17918 -24.9369 -2.2308 -0.0 0.0 0.0 -0.0 0.0 0.0 2.37008e-14 4.95443e-13 3.32343e-15 75.6352 29.9704 9.50166 -13.992 -6.94812 25.5375 -0.00283234 1.52547 0.214442 -1.05711e-09 -1.26723e-10 -2.60682e-10 -1.82878e-09 -2.20576e-10 -4.47406e-10 -1.0571e-09 -1.26726e-10 -2.60688e-10 7.73091 5.47488 0.417314 -1.0571e-09 -1.26727e-10 -2.60684e-10 2.90554 0.965183 0.102902 -1.0571e-09 -1.26727e-10 -2.60678e-10 10.2786 0.731801 0.0259123 -1.05712e-09 -1.26724e-10 -2.60676e-10 2.22167 -0.733487 -0.20892 2.37109e-14 4.9544e-13 3.08737e-15 -82.9109 15.9057 7.52027 12.0184 -5.46091 -21.6467 0.163053 -11.4295 1.6282 -1.06938e-09 -1.72292e-10 -1.38345e-10 -1.84775e-09 -3.03014e-10 -2.4722e-10 -1.06938e-09 -1.7229e-10 -1.38327e-10 -7.73091 5.47488 -0.417314 -1.06938e-09 -1.72291e-10 -1.38344e-10 -2.90554 0.965183 -0.102902 -1.06938e-09 -1.72292e-10 -1.38347e-10 -10.2786 0.731801 -0.0259123 -1.06937e-09 -1.72289e-10 -1.38356e-10 -2.22167 -0.733487 0.20892 -2.03217e-16 0.0 -3.88251e-19 12.6514 2.79291 0.540188 -0.164348 22.6541 0.317019 -4.83003 -18.4236 -10.8757 2.03217e-16 0.0 3.88251e-19 6.83282 -31.1302 2.18835 0.319622 38.4554 -0.181203 4.43158 -12.1775 15.303
-75.023 85.6184 -38.7601 -629.437 -97.8407 625.962 7.86368 2.39615 2.45482 -5.38683 2.7049 0.684501 1.04902 7.8547 -1.4679 4.13858 -24.9323 -2.23155 -0.0 0.0 0.0 -0.0 0.0 0.0 -3.74776e-14 -4.50916e-13 3.33896e-15 75.3666 30.2517 9.94658 -14.1411 -7.06909 25.8381 -0.00195671 1.27324 0.178971 -5.0969e-10 -1.70535e-10 4.84345e-11 -8.82686e-10 -2.96054e-10 8.54011e-11 -5.09685e-10 -1.70533e-10 4.84204e-11 7.73091 5.47488 0.417314 -5.09689e-10 -1.70535e-10 4.84333e-11 2.90554 0.965183 0.102902 -5.09686e-10 -1.70534e-10 4.84389e-11 10.2786 0.731801 0.0259123 -5.09697e-10 -1.70532e-10 4.84401e-11 2.22167 -0.733487 -0.20892 -3.74791e-14 -4.50917e-13 3.06563e-15 -82.8682 15.7884 7.58884 11.9951 -5.44463 -21.6014 0.162506 -11.4112 1.62552 -3.5439e-10 1.49895e-10 4.76949e-11 -6.14941e-10 2.57793e-10 7.97725e-11 -3.54398e-10 1.49896e-10 4.7708e-11 -7.73091 5.47488 -0.417314 -3.54391e-10 1.49894e-10 4.76931e-11 -2.90554 0.965183 -0.102902 -3.54393e-10 1.49895e-10 4.76927e-11 -10.2786 0.731801 -0.0259123 -3.54384e-10 1.49897e-10 4.76831e-11 -2.22167 -0.733487 0.20892 -2.03217e-16 0.0 -3.88251e-19 12.7483 3.78528 0.262768 -0.163974 21.4806 0.272124 -4.62934 -18.2148 -10.4842 2.03217e-16 0.0 3.88251e-19 7.0831 -31.4915 2.57771 0.279598 36.4165 -0.0894674 4.35002 -12.2502 15.172
